<svg xmlns="http://www.w3.org/2000/svg" xmlns:xlink="http://www.w3.org/1999/xlink" width="400" zoomAndPan="magnify" viewBox="0 0 300 74.999997" height="100" preserveAspectRatio="xMidYMid meet" version="1.0"><defs><g/></defs><path fill="#062e6b" d="M 44.296875 41.140625 C 44.296875 43.828125 46.476562 46.007812 49.164062 46.007812 C 51.851562 46.007812 54.03125 43.828125 54.03125 41.140625 C 54.03125 38.453125 51.851562 36.273438 49.164062 36.273438 C 46.476562 36.273438 44.296875 38.453125 44.296875 41.140625 Z M 47.113281 39.453125 C 46.75 39.453125 46.460938 39.160156 46.460938 38.816406 C 46.460938 38.453125 46.75 38.164062 47.113281 38.164062 C 47.476562 38.164062 47.765625 38.453125 47.765625 38.816406 C 47.75 39.160156 47.476562 39.453125 47.113281 39.453125 Z M 50.472656 41.140625 C 50.472656 41.867188 49.890625 42.449219 49.164062 42.449219 C 48.4375 42.449219 47.859375 41.867188 47.859375 41.140625 C 47.859375 40.414062 48.4375 39.832031 49.164062 39.832031 C 49.875 39.832031 50.472656 40.414062 50.472656 41.140625 Z M 50.472656 41.140625 " fill-opacity="1" fill-rule="evenodd"/><path fill="#062e6b" d="M 34.871094 51.785156 C 35.179688 51.695312 35.488281 51.585938 35.796875 51.476562 C 33.582031 48.625 32.273438 45.027344 32.273438 41.140625 C 32.273438 31.804688 39.847656 24.234375 49.183594 24.234375 C 53.234375 24.234375 56.9375 25.648438 59.84375 28.027344 C 61.316406 26.9375 62.894531 25.738281 64.476562 24.46875 L 49.054688 19.039062 L 27.261719 26.792969 C 27.589844 33.914062 28.804688 40.578125 31.421875 46.589844 C 30.167969 47.042969 28.894531 47.480469 27.625 47.863281 C 27.605469 47.84375 27.605469 47.808594 27.589844 47.789062 L 27.042969 48.023438 C 15.003906 51.457031 3.667969 50.3125 17.582031 30.753906 C 3.433594 40.46875 0 53.417969 12.769531 55.34375 C 17.089844 56 22.210938 55.253906 25.679688 54.546875 C 25.898438 54.507812 26.097656 54.453125 26.316406 54.417969 C 29.441406 59.921875 33.582031 64.554688 38.6875 68.476562 C 41.589844 70.710938 44.714844 72.636719 47.964844 74.359375 L 48.875 74.832031 L 48.875 74.996094 C 48.929688 74.976562 48.964844 74.941406 49.019531 74.921875 L 49.164062 74.996094 L 50.363281 74.359375 C 53.597656 72.652344 56.738281 70.710938 59.644531 68.476562 C 65.765625 63.773438 70.488281 58.070312 73.757812 51.058594 C 76.425781 45.320312 77.933594 39.144531 78.679688 32.859375 L 78.496094 33.003906 C 78.496094 32.949219 78.515625 32.878906 78.515625 32.824219 L 73.882812 36.457031 C 73.359375 39.363281 72.59375 42.214844 71.578125 44.992188 C 69.324219 51.128906 65.910156 56.488281 61.296875 61.121094 C 57.664062 64.753906 53.46875 67.75 49.019531 70.292969 C 44.570312 67.75 40.375 64.753906 36.742188 61.121094 C 34.363281 58.742188 32.292969 56.160156 30.550781 53.363281 " fill-opacity="1" fill-rule="evenodd"/><path fill="#208fce" d="M 49.164062 54.164062 C 56.359375 54.164062 62.1875 48.332031 62.1875 41.140625 C 62.1875 33.949219 56.359375 28.121094 49.164062 28.121094 C 41.972656 28.121094 36.144531 33.949219 36.144531 41.140625 C 36.144531 48.332031 41.972656 54.164062 49.164062 54.164062 Z M 49.164062 31.859375 C 54.289062 31.859375 58.445312 36.019531 58.445312 41.140625 C 58.445312 46.261719 54.289062 50.421875 49.164062 50.421875 C 44.042969 50.421875 39.882812 46.261719 39.882812 41.140625 C 39.882812 36.019531 44.042969 31.859375 49.164062 31.859375 Z M 49.164062 31.859375 " fill-opacity="1" fill-rule="evenodd"/><path fill="#208fce" d="M 61.425781 9.792969 C 79.859375 4.453125 82.257812 10.175781 80.441406 15.152344 C 79.824219 16.839844 78.734375 18.636719 77.335938 20.453125 L 49.019531 10.464844 L 48.984375 10.464844 L 19.089844 21.144531 C 18.78125 31.171875 20.125 39.5625 22.757812 46.644531 L 23.410156 46.207031 L 25.082031 45.429688 C 25.046875 45.335938 25.027344 45.265625 24.992188 45.171875 L 26.226562 44.355469 C 23.957031 37.855469 23.101562 30.898438 23.085938 24.015625 L 49 14.789062 L 74.429688 23.832031 C 72.503906 25.886719 70.304688 27.902344 68.054688 29.84375 L 68.054688 29.972656 C 66.746094 31.0625 65.402344 32.113281 64.058594 33.148438 C 65.347656 35.53125 66.074219 38.253906 66.074219 41.160156 C 66.074219 50.496094 58.5 58.070312 49.164062 58.070312 C 46.367188 58.070312 43.753906 57.398438 41.429688 56.199219 C 40.355469 56.5625 39.304688 56.886719 38.230469 57.195312 C 39.8125 58.921875 41.589844 60.574219 43.589844 62.117188 C 45.371094 63.480469 47.238281 64.714844 49.164062 65.84375 C 51.089844 64.714844 52.960938 63.480469 54.742188 62.117188 C 63.511719 55.378906 68 46.679688 69.941406 36.765625 C 73.628906 33.566406 77.042969 30.136719 79.96875 26.574219 C 82.203125 23.832031 85.253906 19.636719 86.6875 15.515625 C 90.902344 3.273438 78.988281 0.00390625 61.425781 9.792969 Z M 61.425781 9.792969 " fill-opacity="1" fill-rule="evenodd"/><g fill="#062e6b" fill-opacity="1"><g transform="translate(105.574495, 51.49477)"><g><path d="M 1.9375 -26.84375 L 24.15625 -26.84375 L 24.15625 -21.359375 L 8.421875 -21.359375 L 8.421875 -16.1875 L 20.328125 -16.1875 L 20.328125 -10.65625 L 8.421875 -10.65625 L 8.421875 -5.484375 L 24.15625 -5.484375 L 24.15625 0 L 1.9375 0 Z M 1.9375 -26.84375 "/></g></g></g><g fill="#062e6b" fill-opacity="1"><g transform="translate(132.406814, 51.49477)"><g><path d="M 0.375 -26.84375 L 7.6875 -26.84375 L 14.453125 -13.875 L 21.25 -26.84375 L 28.5625 -26.84375 L 17.734375 -7.65625 L 17.734375 0 L 11.21875 0 L 11.21875 -7.65625 Z M 0.375 -26.84375 "/></g></g></g><g fill="#062e6b" fill-opacity="1"><g transform="translate(162.998345, 51.49477)"><g><path d="M 1.9375 -26.84375 L 24.15625 -26.84375 L 24.15625 -21.359375 L 8.421875 -21.359375 L 8.421875 -16.1875 L 20.328125 -16.1875 L 20.328125 -10.65625 L 8.421875 -10.65625 L 8.421875 -5.484375 L 24.15625 -5.484375 L 24.15625 0 L 1.9375 0 Z M 1.9375 -26.84375 "/></g></g></g><g fill="#062e6b" fill-opacity="1"><g transform="translate(189.830664, 51.49477)"><g><path d="M 1.9375 -26.84375 L 8.421875 -26.84375 L 19.359375 -10.59375 L 19.359375 -26.84375 L 25.875 -26.84375 L 25.875 0 L 19.359375 0 L 8.421875 -16.25 L 8.421875 0 L 1.9375 0 Z M 1.9375 -26.84375 "/></g></g></g><g fill="#062e6b" fill-opacity="1"><g transform="translate(219.284092, 51.49477)"><g><path d="M 1.9375 -26.84375 L 24.15625 -26.84375 L 24.15625 -21.359375 L 8.421875 -21.359375 L 8.421875 -16.1875 L 20.328125 -16.1875 L 20.328125 -10.65625 L 8.421875 -10.65625 L 8.421875 -5.484375 L 24.15625 -5.484375 L 24.15625 0 L 1.9375 0 Z M 1.9375 -26.84375 "/></g></g></g><g fill="#062e6b" fill-opacity="1"><g transform="translate(246.116411, 51.49477)"><g><path d="M 0.375 -26.84375 L 24.359375 -26.84375 L 24.359375 -21.359375 L 15.625 -21.359375 L 15.625 0 L 9.078125 0 L 9.078125 -21.359375 L 0.375 -21.359375 Z M 0.375 -26.84375 "/></g></g></g><g fill="#062e6b" fill-opacity="1"><g transform="translate(90.909087, 64.169953)"><g><path d="M 8.0625 0 L 6.0625 0 L 2.71875 -5.0625 L 2.71875 0 L 0.71875 0 L 0.71875 -8.203125 L 2.71875 -8.203125 L 6.0625 -3.125 L 6.0625 -8.203125 L 8.0625 -8.203125 Z M 8.0625 0 "/></g></g></g><g fill="#062e6b" fill-opacity="1"><g transform="translate(100.221573, 64.169953)"><g><path d="M 2.71875 -6.609375 L 2.71875 -4.9375 L 5.40625 -4.9375 L 5.40625 -3.40625 L 2.71875 -3.40625 L 2.71875 -1.59375 L 5.75 -1.59375 L 5.75 0 L 0.71875 0 L 0.71875 -8.203125 L 5.75 -8.203125 L 5.75 -6.609375 Z M 2.71875 -6.609375 "/></g></g></g><g fill="#062e6b" fill-opacity="1"><g transform="translate(107.068842, 64.169953)"><g><path d="M 6.625 -8.203125 L 6.625 -6.609375 L 4.453125 -6.609375 L 4.453125 0 L 2.453125 0 L 2.453125 -6.609375 L 0.28125 -6.609375 L 0.28125 -8.203125 Z M 6.625 -8.203125 "/></g></g></g><g fill="#062e6b" fill-opacity="1"><g transform="translate(114.500285, 64.169953)"><g><path d="M 12.015625 -8.203125 L 9.875 0 L 7.453125 0 L 6.140625 -5.40625 L 4.796875 0 L 2.375 0 L 0.296875 -8.203125 L 2.4375 -8.203125 L 3.609375 -2.234375 L 5.078125 -8.203125 L 7.265625 -8.203125 L 8.671875 -2.234375 L 9.859375 -8.203125 Z M 12.015625 -8.203125 "/></g></g></g><g fill="#062e6b" fill-opacity="1"><g transform="translate(127.317833, 64.169953)"><g><path d="M 4.609375 0.078125 C 3.835938 0.078125 3.128906 -0.0976562 2.484375 -0.453125 C 1.835938 -0.816406 1.328125 -1.316406 0.953125 -1.953125 C 0.578125 -2.597656 0.390625 -3.320312 0.390625 -4.125 C 0.390625 -4.925781 0.578125 -5.644531 0.953125 -6.28125 C 1.328125 -6.925781 1.835938 -7.425781 2.484375 -7.78125 C 3.128906 -8.144531 3.835938 -8.328125 4.609375 -8.328125 C 5.378906 -8.328125 6.082031 -8.144531 6.71875 -7.78125 C 7.363281 -7.425781 7.867188 -6.925781 8.234375 -6.28125 C 8.609375 -5.644531 8.796875 -4.925781 8.796875 -4.125 C 8.796875 -3.320312 8.609375 -2.597656 8.234375 -1.953125 C 7.859375 -1.316406 7.351562 -0.816406 6.71875 -0.453125 C 6.082031 -0.0976562 5.378906 0.078125 4.609375 0.078125 Z M 4.609375 -1.734375 C 5.265625 -1.734375 5.785156 -1.953125 6.171875 -2.390625 C 6.566406 -2.828125 6.765625 -3.40625 6.765625 -4.125 C 6.765625 -4.851562 6.566406 -5.429688 6.171875 -5.859375 C 5.785156 -6.296875 5.265625 -6.515625 4.609375 -6.515625 C 3.941406 -6.515625 3.410156 -6.296875 3.015625 -5.859375 C 2.628906 -5.429688 2.4375 -4.851562 2.4375 -4.125 C 2.4375 -3.394531 2.628906 -2.8125 3.015625 -2.375 C 3.410156 -1.945312 3.941406 -1.734375 4.609375 -1.734375 Z M 4.609375 -1.734375 "/></g></g></g><g fill="#062e6b" fill-opacity="1"><g transform="translate(137.027566, 64.169953)"><g><path d="M 4.90625 0 L 3.203125 -3.09375 L 2.71875 -3.09375 L 2.71875 0 L 0.71875 0 L 0.71875 -8.203125 L 4.078125 -8.203125 C 4.722656 -8.203125 5.273438 -8.085938 5.734375 -7.859375 C 6.191406 -7.640625 6.53125 -7.332031 6.75 -6.9375 C 6.976562 -6.539062 7.09375 -6.101562 7.09375 -5.625 C 7.09375 -5.070312 6.9375 -4.582031 6.625 -4.15625 C 6.320312 -3.726562 5.867188 -3.425781 5.265625 -3.25 L 7.171875 0 Z M 2.71875 -4.515625 L 3.96875 -4.515625 C 4.332031 -4.515625 4.601562 -4.601562 4.78125 -4.78125 C 4.96875 -4.957031 5.0625 -5.210938 5.0625 -5.546875 C 5.0625 -5.847656 4.96875 -6.085938 4.78125 -6.265625 C 4.601562 -6.453125 4.332031 -6.546875 3.96875 -6.546875 L 2.71875 -6.546875 Z M 2.71875 -4.515625 "/></g></g></g><g fill="#062e6b" fill-opacity="1"><g transform="translate(145.171702, 64.169953)"><g><path d="M 5.484375 0 L 2.71875 -3.625 L 2.71875 0 L 0.71875 0 L 0.71875 -8.203125 L 2.71875 -8.203125 L 2.71875 -4.609375 L 5.453125 -8.203125 L 7.8125 -8.203125 L 4.625 -4.1875 L 7.921875 0 Z M 5.484375 0 "/></g></g></g><g fill="#062e6b" fill-opacity="1"><g transform="translate(153.841602, 64.169953)"><g/></g></g><g fill="#062e6b" fill-opacity="1"><g transform="translate(156.844984, 64.169953)"><g><path d="M 10.015625 -8.203125 L 10.015625 0 L 8.015625 0 L 8.015625 -4.921875 L 6.1875 0 L 4.5625 0 L 2.71875 -4.9375 L 2.71875 0 L 0.71875 0 L 0.71875 -8.203125 L 3.078125 -8.203125 L 5.390625 -2.53125 L 7.671875 -8.203125 Z M 10.015625 -8.203125 "/></g></g></g><g fill="#062e6b" fill-opacity="1"><g transform="translate(168.096934, 64.169953)"><g><path d="M 4.609375 0.078125 C 3.835938 0.078125 3.128906 -0.0976562 2.484375 -0.453125 C 1.835938 -0.816406 1.328125 -1.316406 0.953125 -1.953125 C 0.578125 -2.597656 0.390625 -3.320312 0.390625 -4.125 C 0.390625 -4.925781 0.578125 -5.644531 0.953125 -6.28125 C 1.328125 -6.925781 1.835938 -7.425781 2.484375 -7.78125 C 3.128906 -8.144531 3.835938 -8.328125 4.609375 -8.328125 C 5.378906 -8.328125 6.082031 -8.144531 6.71875 -7.78125 C 7.363281 -7.425781 7.867188 -6.925781 8.234375 -6.28125 C 8.609375 -5.644531 8.796875 -4.925781 8.796875 -4.125 C 8.796875 -3.320312 8.609375 -2.597656 8.234375 -1.953125 C 7.859375 -1.316406 7.351562 -0.816406 6.71875 -0.453125 C 6.082031 -0.0976562 5.378906 0.078125 4.609375 0.078125 Z M 4.609375 -1.734375 C 5.265625 -1.734375 5.785156 -1.953125 6.171875 -2.390625 C 6.566406 -2.828125 6.765625 -3.40625 6.765625 -4.125 C 6.765625 -4.851562 6.566406 -5.429688 6.171875 -5.859375 C 5.785156 -6.296875 5.265625 -6.515625 4.609375 -6.515625 C 3.941406 -6.515625 3.410156 -6.296875 3.015625 -5.859375 C 2.628906 -5.429688 2.4375 -4.851562 2.4375 -4.125 C 2.4375 -3.394531 2.628906 -2.8125 3.015625 -2.375 C 3.410156 -1.945312 3.941406 -1.734375 4.609375 -1.734375 Z M 4.609375 -1.734375 "/></g></g></g><g fill="#062e6b" fill-opacity="1"><g transform="translate(177.806667, 64.169953)"><g><path d="M 8.0625 0 L 6.0625 0 L 2.71875 -5.0625 L 2.71875 0 L 0.71875 0 L 0.71875 -8.203125 L 2.71875 -8.203125 L 6.0625 -3.125 L 6.0625 -8.203125 L 8.0625 -8.203125 Z M 8.0625 0 "/></g></g></g><g fill="#062e6b" fill-opacity="1"><g transform="translate(187.119147, 64.169953)"><g><path d="M 2.71875 -8.203125 L 2.71875 0 L 0.71875 0 L 0.71875 -8.203125 Z M 2.71875 -8.203125 "/></g></g></g><g fill="#062e6b" fill-opacity="1"><g transform="translate(191.092261, 64.169953)"><g><path d="M 6.625 -8.203125 L 6.625 -6.609375 L 4.453125 -6.609375 L 4.453125 0 L 2.453125 0 L 2.453125 -6.609375 L 0.28125 -6.609375 L 0.28125 -8.203125 Z M 6.625 -8.203125 "/></g></g></g><g fill="#062e6b" fill-opacity="1"><g transform="translate(198.52371, 64.169953)"><g><path d="M 4.609375 0.078125 C 3.835938 0.078125 3.128906 -0.0976562 2.484375 -0.453125 C 1.835938 -0.816406 1.328125 -1.316406 0.953125 -1.953125 C 0.578125 -2.597656 0.390625 -3.320312 0.390625 -4.125 C 0.390625 -4.925781 0.578125 -5.644531 0.953125 -6.28125 C 1.328125 -6.925781 1.835938 -7.425781 2.484375 -7.78125 C 3.128906 -8.144531 3.835938 -8.328125 4.609375 -8.328125 C 5.378906 -8.328125 6.082031 -8.144531 6.71875 -7.78125 C 7.363281 -7.425781 7.867188 -6.925781 8.234375 -6.28125 C 8.609375 -5.644531 8.796875 -4.925781 8.796875 -4.125 C 8.796875 -3.320312 8.609375 -2.597656 8.234375 -1.953125 C 7.859375 -1.316406 7.351562 -0.816406 6.71875 -0.453125 C 6.082031 -0.0976562 5.378906 0.078125 4.609375 0.078125 Z M 4.609375 -1.734375 C 5.265625 -1.734375 5.785156 -1.953125 6.171875 -2.390625 C 6.566406 -2.828125 6.765625 -3.40625 6.765625 -4.125 C 6.765625 -4.851562 6.566406 -5.429688 6.171875 -5.859375 C 5.785156 -6.296875 5.265625 -6.515625 4.609375 -6.515625 C 3.941406 -6.515625 3.410156 -6.296875 3.015625 -5.859375 C 2.628906 -5.429688 2.4375 -4.851562 2.4375 -4.125 C 2.4375 -3.394531 2.628906 -2.8125 3.015625 -2.375 C 3.410156 -1.945312 3.941406 -1.734375 4.609375 -1.734375 Z M 4.609375 -1.734375 "/></g></g></g><g fill="#062e6b" fill-opacity="1"><g transform="translate(208.233449, 64.169953)"><g><path d="M 4.90625 0 L 3.203125 -3.09375 L 2.71875 -3.09375 L 2.71875 0 L 0.71875 0 L 0.71875 -8.203125 L 4.078125 -8.203125 C 4.722656 -8.203125 5.273438 -8.085938 5.734375 -7.859375 C 6.191406 -7.640625 6.53125 -7.332031 6.75 -6.9375 C 6.976562 -6.539062 7.09375 -6.101562 7.09375 -5.625 C 7.09375 -5.070312 6.9375 -4.582031 6.625 -4.15625 C 6.320312 -3.726562 5.867188 -3.425781 5.265625 -3.25 L 7.171875 0 Z M 2.71875 -4.515625 L 3.96875 -4.515625 C 4.332031 -4.515625 4.601562 -4.601562 4.78125 -4.78125 C 4.96875 -4.957031 5.0625 -5.210938 5.0625 -5.546875 C 5.0625 -5.847656 4.96875 -6.085938 4.78125 -6.265625 C 4.601562 -6.453125 4.332031 -6.546875 3.96875 -6.546875 L 2.71875 -6.546875 Z M 2.71875 -4.515625 "/></g></g></g><g fill="#062e6b" fill-opacity="1"><g transform="translate(216.377591, 64.169953)"><g><path d="M 2.71875 -8.203125 L 2.71875 0 L 0.71875 0 L 0.71875 -8.203125 Z M 2.71875 -8.203125 "/></g></g></g><g fill="#062e6b" fill-opacity="1"><g transform="translate(220.350705, 64.169953)"><g><path d="M 8.0625 0 L 6.0625 0 L 2.71875 -5.0625 L 2.71875 0 L 0.71875 0 L 0.71875 -8.203125 L 2.71875 -8.203125 L 6.0625 -3.125 L 6.0625 -8.203125 L 8.0625 -8.203125 Z M 8.0625 0 "/></g></g></g><g fill="#062e6b" fill-opacity="1"><g transform="translate(229.663196, 64.169953)"><g><path d="M 6.171875 -5.609375 C 6.023438 -5.878906 5.8125 -6.085938 5.53125 -6.234375 C 5.257812 -6.378906 4.9375 -6.453125 4.5625 -6.453125 C 3.914062 -6.453125 3.394531 -6.238281 3 -5.8125 C 2.613281 -5.382812 2.421875 -4.816406 2.421875 -4.109375 C 2.421875 -3.359375 2.625 -2.769531 3.03125 -2.34375 C 3.4375 -1.914062 4 -1.703125 4.71875 -1.703125 C 5.207031 -1.703125 5.617188 -1.828125 5.953125 -2.078125 C 6.296875 -2.328125 6.546875 -2.6875 6.703125 -3.15625 L 4.171875 -3.15625 L 4.171875 -4.625 L 8.515625 -4.625 L 8.515625 -2.765625 C 8.367188 -2.265625 8.117188 -1.800781 7.765625 -1.375 C 7.410156 -0.945312 6.957031 -0.597656 6.40625 -0.328125 C 5.863281 -0.0664062 5.25 0.0625 4.5625 0.0625 C 3.757812 0.0625 3.039062 -0.113281 2.40625 -0.46875 C 1.769531 -0.820312 1.273438 -1.316406 0.921875 -1.953125 C 0.566406 -2.585938 0.390625 -3.304688 0.390625 -4.109375 C 0.390625 -4.921875 0.566406 -5.644531 0.921875 -6.28125 C 1.273438 -6.914062 1.765625 -7.410156 2.390625 -7.765625 C 3.023438 -8.117188 3.75 -8.296875 4.5625 -8.296875 C 5.539062 -8.296875 6.363281 -8.054688 7.03125 -7.578125 C 7.707031 -7.109375 8.15625 -6.453125 8.375 -5.609375 Z M 6.171875 -5.609375 "/></g></g></g><g fill="#062e6b" fill-opacity="1"><g transform="translate(239.092509, 64.169953)"><g/></g></g><g fill="#062e6b" fill-opacity="1"><g transform="translate(242.095896, 64.169953)"><g><path d="M 3.6875 0.078125 C 3.09375 0.078125 2.554688 -0.015625 2.078125 -0.203125 C 1.609375 -0.398438 1.226562 -0.6875 0.9375 -1.0625 C 0.65625 -1.445312 0.503906 -1.910156 0.484375 -2.453125 L 2.625 -2.453125 C 2.65625 -2.148438 2.757812 -1.914062 2.9375 -1.75 C 3.113281 -1.59375 3.347656 -1.515625 3.640625 -1.515625 C 3.929688 -1.515625 4.160156 -1.582031 4.328125 -1.71875 C 4.503906 -1.851562 4.59375 -2.046875 4.59375 -2.296875 C 4.59375 -2.492188 4.523438 -2.65625 4.390625 -2.78125 C 4.253906 -2.914062 4.085938 -3.023438 3.890625 -3.109375 C 3.691406 -3.203125 3.40625 -3.300781 3.03125 -3.40625 C 2.507812 -3.570312 2.078125 -3.738281 1.734375 -3.90625 C 1.398438 -4.070312 1.113281 -4.3125 0.875 -4.625 C 0.632812 -4.945312 0.515625 -5.363281 0.515625 -5.875 C 0.515625 -6.644531 0.789062 -7.242188 1.34375 -7.671875 C 1.894531 -8.109375 2.613281 -8.328125 3.5 -8.328125 C 4.40625 -8.328125 5.132812 -8.109375 5.6875 -7.671875 C 6.238281 -7.242188 6.535156 -6.640625 6.578125 -5.859375 L 4.421875 -5.859375 C 4.398438 -6.128906 4.300781 -6.335938 4.125 -6.484375 C 3.945312 -6.640625 3.71875 -6.71875 3.4375 -6.71875 C 3.195312 -6.71875 3 -6.648438 2.84375 -6.515625 C 2.695312 -6.390625 2.625 -6.207031 2.625 -5.96875 C 2.625 -5.707031 2.75 -5.5 3 -5.34375 C 3.25 -5.195312 3.640625 -5.039062 4.171875 -4.875 C 4.703125 -4.695312 5.128906 -4.523438 5.453125 -4.359375 C 5.785156 -4.191406 6.070312 -3.953125 6.3125 -3.640625 C 6.5625 -3.328125 6.6875 -2.925781 6.6875 -2.4375 C 6.6875 -1.96875 6.566406 -1.539062 6.328125 -1.15625 C 6.085938 -0.78125 5.738281 -0.476562 5.28125 -0.25 C 4.832031 -0.03125 4.300781 0.078125 3.6875 0.078125 Z M 3.6875 0.078125 "/></g></g></g><g fill="#062e6b" fill-opacity="1"><g transform="translate(249.807749, 64.169953)"><g><path d="M 7.765625 -8.203125 L 4.921875 -2.71875 L 4.921875 0 L 2.921875 0 L 2.921875 -2.71875 L 0.078125 -8.203125 L 2.34375 -8.203125 L 3.9375 -4.765625 L 5.515625 -8.203125 Z M 7.765625 -8.203125 "/></g></g></g><g fill="#062e6b" fill-opacity="1"><g transform="translate(258.173883, 64.169953)"><g><path d="M 6.625 -8.203125 L 6.625 -6.609375 L 4.453125 -6.609375 L 4.453125 0 L 2.453125 0 L 2.453125 -6.609375 L 0.28125 -6.609375 L 0.28125 -8.203125 Z M 6.625 -8.203125 "/></g></g></g><g fill="#062e6b" fill-opacity="1"><g transform="translate(265.605332, 64.169953)"><g><path d="M 2.71875 -6.609375 L 2.71875 -4.9375 L 5.40625 -4.9375 L 5.40625 -3.40625 L 2.71875 -3.40625 L 2.71875 -1.59375 L 5.75 -1.59375 L 5.75 0 L 0.71875 0 L 0.71875 -8.203125 L 5.75 -8.203125 L 5.75 -6.609375 Z M 2.71875 -6.609375 "/></g></g></g><g fill="#062e6b" fill-opacity="1"><g transform="translate(272.452606, 64.169953)"><g><path d="M 10.015625 -8.203125 L 10.015625 0 L 8.015625 0 L 8.015625 -4.921875 L 6.1875 0 L 4.5625 0 L 2.71875 -4.9375 L 2.71875 0 L 0.71875 0 L 0.71875 -8.203125 L 3.078125 -8.203125 L 5.390625 -2.53125 L 7.671875 -8.203125 Z M 10.015625 -8.203125 "/></g></g></g></svg>